<svg width="64" height="64" viewBox="0 0 64 64" fill="none" xmlns="http://www.w3.org/2000/svg">
  <!-- Background rounded square (like the p-2 rounded-xl container) -->
  <rect width="64" height="64" rx="14" fill="#2C5EAD"/>
  <!-- Stethoscope icon (Lucide, scaled and centered) -->
  <g transform="translate(10, 10) scale(1.83)" stroke="white" stroke-width="2" stroke-linecap="round" stroke-linejoin="round" fill="none">
    <path d="M4.8 2.3A.3.3 0 1 0 5 2H4a2 2 0 0 0-2 2v5a6 6 0 0 0 6 6v0a6 6 0 0 0 6-6V4a2 2 0 0 0-2-2h-1a.2.2 0 1 0 .3.3"/>
    <path d="M8 15a6 6 0 0 0 6 6h0a6 6 0 0 0 6-6v-4"/>
    <circle cx="20" cy="10" r="2"/>
  </g>
</svg>
